<svg width="551" height="96" viewBox="0 0 551 96" fill="none" xmlns="http://www.w3.org/2000/svg">
<g filter="url(#filter0_d_9_363)">
<rect x="16.5" y="17.5" width="518" height="63" rx="31.5" fill="white" stroke="#2FC18C"/>
<path d="M97.584 58.128C97.3227 58.128 97.0667 58.0987 96.816 58.04C96.5653 57.9813 96.3387 57.8773 96.136 57.728C95.9387 57.5733 95.7813 57.3573 95.664 57.08C95.5467 56.7973 95.488 56.4347 95.488 55.992C95.488 55.88 95.488 55.7653 95.488 55.648C95.488 55.5253 95.488 55.3973 95.488 55.264V50.704H93.416V49.504H94.744C94.9253 49.504 95.0667 49.4987 95.168 49.488C95.2693 49.472 95.3413 49.4373 95.384 49.384C95.432 49.3253 95.4613 49.2373 95.472 49.12C95.4827 48.9973 95.488 48.8293 95.488 48.616V46.688H96.856V49.504H99.512V50.704H96.856V54.824C96.856 54.9413 96.856 55.056 96.856 55.168C96.856 55.28 96.856 55.384 96.856 55.48C96.856 55.9333 96.9093 56.288 97.016 56.544C97.128 56.8 97.376 56.928 97.76 56.928C97.9147 56.928 98.0613 56.9147 98.2 56.888C98.3387 56.8613 98.4427 56.8347 98.512 56.808V57.992C98.4213 58.024 98.2933 58.0533 98.128 58.08C97.968 58.112 97.7867 58.128 97.584 58.128ZM103.175 58V49.504H104.535V52.112L104.087 51.952C104.119 51.6373 104.199 51.328 104.327 51.024C104.455 50.7147 104.631 50.4373 104.855 50.192C105.085 49.9413 105.37 49.744 105.711 49.6C106.053 49.4507 106.453 49.376 106.911 49.376C107.253 49.376 107.53 49.4053 107.743 49.464C107.962 49.5173 108.098 49.56 108.151 49.592L107.799 50.928C107.746 50.8907 107.637 50.8427 107.471 50.784C107.311 50.7253 107.082 50.696 106.783 50.696C106.341 50.696 105.973 50.776 105.679 50.936C105.391 51.096 105.162 51.3093 104.991 51.576C104.826 51.8373 104.709 52.1227 104.639 52.432C104.57 52.7413 104.535 53.048 104.535 53.352V58H103.175ZM114.669 58.152C114.061 58.152 113.554 58.048 113.149 57.84C112.743 57.6267 112.421 57.352 112.181 57.016C111.946 56.68 111.778 56.3173 111.677 55.928C111.581 55.5333 111.533 55.1547 111.533 54.792C111.533 54.5893 111.533 54.3813 111.533 54.168C111.533 53.9493 111.533 53.7307 111.533 53.512V49.504H112.901V53.336C112.901 53.5333 112.901 53.728 112.901 53.92C112.901 54.112 112.901 54.2933 112.901 54.464C112.901 54.896 112.959 55.296 113.077 55.664C113.199 56.032 113.41 56.3307 113.709 56.56C114.007 56.784 114.418 56.896 114.941 56.896C115.431 56.896 115.861 56.7493 116.229 56.456C116.597 56.1573 116.885 55.7867 117.093 55.344C117.301 54.896 117.405 54.4507 117.405 54.008L118.197 54.336C118.197 54.8053 118.114 55.2667 117.949 55.72C117.783 56.168 117.546 56.576 117.237 56.944C116.933 57.312 116.562 57.6053 116.125 57.824C115.693 58.0427 115.207 58.152 114.669 58.152ZM117.405 58V49.504H118.765V58H117.405ZM123.487 54.296V53.08H130.055L129.815 53.48C129.815 53.448 129.815 53.4187 129.815 53.392C129.815 53.36 129.815 53.3307 129.815 53.304C129.815 52.8133 129.711 52.3653 129.503 51.96C129.3 51.5493 128.996 51.2213 128.591 50.976C128.185 50.7307 127.684 50.608 127.087 50.608C126.484 50.608 125.953 50.736 125.495 50.992C125.036 51.248 124.679 51.6107 124.423 52.08C124.167 52.544 124.039 53.0987 124.039 53.744C124.039 54.4 124.161 54.9653 124.407 55.44C124.657 55.9147 125.012 56.28 125.471 56.536C125.929 56.792 126.473 56.92 127.103 56.92C127.551 56.92 127.94 56.8747 128.271 56.784C128.601 56.688 128.873 56.5627 129.087 56.408C129.305 56.248 129.471 56.0747 129.583 55.888C129.695 55.7013 129.761 55.5147 129.783 55.328H131.143C131.116 55.6693 131.009 56.008 130.823 56.344C130.636 56.68 130.372 56.9867 130.031 57.264C129.689 57.536 129.271 57.7547 128.775 57.92C128.279 58.0853 127.708 58.168 127.063 58.168C126.209 58.168 125.457 57.9813 124.807 57.608C124.156 57.2347 123.644 56.7173 123.271 56.056C122.903 55.3947 122.719 54.6347 122.719 53.776C122.719 52.9067 122.905 52.144 123.279 51.488C123.652 50.8267 124.167 50.3093 124.823 49.936C125.479 49.5627 126.228 49.376 127.071 49.376C127.929 49.376 128.673 49.5627 129.303 49.936C129.932 50.3093 130.417 50.8213 130.759 51.472C131.1 52.1173 131.271 52.8533 131.271 53.68C131.271 53.7653 131.268 53.8773 131.263 54.016C131.257 54.1547 131.249 54.248 131.239 54.296H123.487Z" fill="black"/>
<circle cx="49" cy="49" r="23" fill="#2FC18C"/>
<path d="M44.5026 59.4538L35.4097 50.3609C34.8634 49.8146 34.8634 48.9289 35.4097 48.3826L37.388 46.4042C37.9343 45.8579 38.8201 45.8579 39.3664 46.4042L45.4917 52.5296L58.6116 39.4097C59.1579 38.8634 60.0437 38.8634 60.59 39.4097L62.5683 41.3881C63.1146 41.9343 63.1146 42.8201 62.5683 43.3664L46.4809 59.4538C45.9346 60.0001 45.0489 60.0001 44.5026 59.4538V59.4538Z" fill="white"/>
</g>
<defs>
<filter id="filter0_d_9_363" x="0" y="0" width="551" height="96" filterUnits="userSpaceOnUse" color-interpolation-filters="sRGB">
<feFlood flood-opacity="0" result="BackgroundImageFix"/>
<feColorMatrix in="SourceAlpha" type="matrix" values="0 0 0 0 0 0 0 0 0 0 0 0 0 0 0 0 0 0 127 0" result="hardAlpha"/>
<feOffset dy="-1"/>
<feGaussianBlur stdDeviation="8"/>
<feComposite in2="hardAlpha" operator="out"/>
<feColorMatrix type="matrix" values="0 0 0 0 0.184314 0 0 0 0 0.756863 0 0 0 0 0.54902 0 0 0 1 0"/>
<feBlend mode="normal" in2="BackgroundImageFix" result="effect1_dropShadow_9_363"/>
<feBlend mode="normal" in="SourceGraphic" in2="effect1_dropShadow_9_363" result="shape"/>
</filter>
</defs>
</svg>
